<svg xmlns="http://www.w3.org/2000/svg" class="viz" width="760" height="528" viewBox="0 0 760 528" role="img" aria-labelledby="title desc"><style>
.viz{--surface:#fcfcfb;--ink:#0b0b0b;--ink2:#52514e;--muted:#898781;--grid:#e1e0d9;
--axis:#c3c2b7;--s0:#b4b3ac;--s1:#2a78d6;--s2:#eb6834}
@media (prefers-color-scheme:dark){.viz{--surface:#1a1a19;--ink:#fff;--ink2:#c3c2b7;
--grid:#2c2c2a;--axis:#383835;--s0:#5c5b56;--s1:#3987e5;--s2:#d95926}}
text{font-family:system-ui,-apple-system,'Segoe UI','PingFang SC','Microsoft YaHei',sans-serif}.bg{fill:var(--surface)}
.title{fill:var(--ink);font-size:15px;font-weight:600}.sub{fill:var(--ink2);font-size:12px}
.head{fill:var(--ink);font-size:13px;font-weight:600}.cat{fill:var(--ink2);font-size:12px}
.val{fill:var(--ink2);font-size:11px;font-variant-numeric:tabular-nums}
.tick{fill:var(--muted);font-size:11px;font-variant-numeric:tabular-nums}
.grid{stroke:var(--grid)}.axis{stroke:var(--axis)}
.s0{fill:var(--s0)}.s1{fill:var(--s1)}.s2{fill:var(--s2)}
</style><title id="title">请求延迟中位数 · Qwen3.5-4B · Apple M3 Max</title><desc id="desc">每种请求交替测量 7 次 · 除重复请求外每次都是新 state · 越短越好</desc><rect class="bg" width="760" height="528" rx="12"/><text class="title" x="24.0" y="34.0" text-anchor="start">请求延迟中位数 · Qwen3.5-4B · Apple M3 Max</text><text class="sub" x="24.0" y="54.0" text-anchor="start">每种请求交替测量 7 次 · 除重复请求外每次都是新 state · 越短越好</text><rect class="s0" x="24.0" y="68" width="12" height="12" rx="3"/><text class="cat" x="42.0" y="78.0" text-anchor="start">优化前</text><rect class="s1" x="100.0" y="68" width="12" height="12" rx="3"/><text class="cat" x="118.0" y="78.0" text-anchor="start">优化后</text><text class="head" x="24.0" y="118.0" text-anchor="start">一个问题</text><line class="grid" x1="190.0" y1="128.0" x2="190.0" y2="300.0"/><text class="tick" x="190.0" y="318.0" text-anchor="middle">0 ms</text><line class="grid" x1="273.3" y1="128.0" x2="273.3" y2="300.0"/><text class="tick" x="273.3" y="318.0" text-anchor="middle">200 ms</text><line class="grid" x1="356.7" y1="128.0" x2="356.7" y2="300.0"/><text class="tick" x="356.7" y="318.0" text-anchor="middle">400 ms</text><line class="grid" x1="440.0" y1="128.0" x2="440.0" y2="300.0"/><text class="tick" x="440.0" y="318.0" text-anchor="middle">600 ms</text><line class="grid" x1="523.3" y1="128.0" x2="523.3" y2="300.0"/><text class="tick" x="523.3" y="318.0" text-anchor="middle">800 ms</text><line class="grid" x1="606.7" y1="128.0" x2="606.7" y2="300.0"/><text class="tick" x="606.7" y="318.0" text-anchor="middle">1.00 s</text><line class="grid" x1="690.0" y1="128.0" x2="690.0" y2="300.0"/><text class="tick" x="690.0" y="318.0" text-anchor="middle">1.20 s</text><line class="axis" x1="190.0" y1="128.0" x2="190.0" y2="300.0"/><text class="cat" x="178.0" y="149.0" text-anchor="end">客服工单</text><path class="s0" d="M190.0,134.0H307.0Q311.0,134.0 311.0,138.0V140.0Q311.0,144.0 307.0,144.0H190.0Z"><title>客服工单 · 优化前: 290 ms</title></path><text class="val" x="317.0" y="143.0" text-anchor="start">290 ms</text><path class="s1" d="M190.0,146.0H302.0Q306.0,146.0 306.0,150.0V152.0Q306.0,156.0 302.0,156.0H190.0Z"><title>客服工单 · 优化后: 278 ms</title></path><text class="val" x="312.0" y="155.0" text-anchor="start">278 ms</text><text class="cat" x="178.0" y="185.0" text-anchor="end">1.2k token 条款</text><path class="s0" d="M190.0,170.0H604.8Q608.8,170.0 608.8,174.0V176.0Q608.8,180.0 604.8,180.0H190.0Z"><title>1.2k token 条款 · 优化前: 1.01 s</title></path><text class="val" x="614.8" y="179.0" text-anchor="start">1.01 s</text><path class="s1" d="M190.0,182.0H601.2Q605.2,182.0 605.2,186.0V188.0Q605.2,192.0 601.2,192.0H190.0Z"><title>1.2k token 条款 · 优化后: 996 ms</title></path><text class="val" x="611.2" y="191.0" text-anchor="start">996 ms</text><text class="cat" x="178.0" y="221.0" text-anchor="end">448×672 截图</text><path class="s0" d="M190.0,206.0H496.6Q500.6,206.0 500.6,210.0V212.0Q500.6,216.0 496.6,216.0H190.0Z"><title>448×672 截图 · 优化前: 746 ms</title></path><text class="val" x="506.6" y="215.0" text-anchor="start">746 ms</text><path class="s1" d="M190.0,218.0H492.2Q496.2,218.0 496.2,222.0V224.0Q496.2,228.0 492.2,228.0H190.0Z"><title>448×672 截图 · 优化后: 735 ms</title></path><text class="val" x="502.2" y="227.0" text-anchor="start">735 ms</text><text class="cat" x="178.0" y="257.0" text-anchor="end">2048×1536 照片</text><path class="s0" d="M190.0,242.0H589.4Q593.4,242.0 593.4,246.0V248.0Q593.4,252.0 589.4,252.0H190.0Z"><title>2048×1536 照片 · 优化前: 968 ms</title></path><text class="val" x="599.4" y="251.0" text-anchor="start">968 ms</text><path class="s1" d="M190.0,254.0H565.5Q569.5,254.0 569.5,258.0V260.0Q569.5,264.0 565.5,264.0H190.0Z"><title>2048×1536 照片 · 优化后: 911 ms</title></path><text class="val" x="575.5" y="263.0" text-anchor="start">911 ms</text><text class="cat" x="178.0" y="293.0" text-anchor="end">重复请求</text><path class="s0" d="M190.0,278.0H204.4Q208.4,278.0 208.4,282.0V284.0Q208.4,288.0 204.4,288.0H190.0Z"><title>重复请求 · 优化前: 44 ms</title></path><text class="val" x="214.4" y="287.0" text-anchor="start">44 ms</text><path class="s1" d="M190.0,290.0H200.8Q204.8,290.0 204.8,294.0V296.0Q204.8,300.0 200.8,300.0H190.0Z"><title>重复请求 · 优化后: 35 ms</title></path><text class="val" x="210.8" y="299.0" text-anchor="start">35 ms</text><text class="head" x="24.0" y="364.0" text-anchor="start">同一 state 的四个问题</text><line class="grid" x1="190.0" y1="374.0" x2="190.0" y2="474.0"/><text class="tick" x="190.0" y="492.0" text-anchor="middle">0 ms</text><line class="grid" x1="273.3" y1="374.0" x2="273.3" y2="474.0"/><text class="tick" x="273.3" y="492.0" text-anchor="middle">500 ms</text><line class="grid" x1="356.7" y1="374.0" x2="356.7" y2="474.0"/><text class="tick" x="356.7" y="492.0" text-anchor="middle">1.00 s</text><line class="grid" x1="440.0" y1="374.0" x2="440.0" y2="474.0"/><text class="tick" x="440.0" y="492.0" text-anchor="middle">1.50 s</text><line class="grid" x1="523.3" y1="374.0" x2="523.3" y2="474.0"/><text class="tick" x="523.3" y="492.0" text-anchor="middle">2.00 s</text><line class="grid" x1="606.7" y1="374.0" x2="606.7" y2="474.0"/><text class="tick" x="606.7" y="492.0" text-anchor="middle">2.50 s</text><line class="grid" x1="690.0" y1="374.0" x2="690.0" y2="474.0"/><text class="tick" x="690.0" y="492.0" text-anchor="middle">3.00 s</text><line class="axis" x1="190.0" y1="374.0" x2="190.0" y2="474.0"/><text class="cat" x="178.0" y="395.0" text-anchor="end">客服工单</text><path class="s0" d="M190.0,380.0H364.2Q368.2,380.0 368.2,384.0V386.0Q368.2,390.0 364.2,390.0H190.0Z"><title>客服工单 · 优化前: 1.07 s</title></path><text class="val" x="374.2" y="389.0" text-anchor="start">1.07 s</text><path class="s1" d="M190.0,392.0H289.9Q293.9,392.0 293.9,396.0V398.0Q293.9,402.0 289.9,402.0H190.0Z"><title>客服工单 · 优化后: 623 ms</title></path><text class="val" x="299.9" y="401.0" text-anchor="start">623 ms</text><text class="cat" x="178.0" y="431.0" text-anchor="end">1.2k token 条款</text><path class="s0" d="M190.0,416.0H620.8Q624.8,416.0 624.8,420.0V422.0Q624.8,426.0 620.8,426.0H190.0Z"><title>1.2k token 条款 · 优化前: 2.61 s</title></path><text class="val" x="630.8" y="425.0" text-anchor="start">2.61 s</text><path class="s1" d="M190.0,428.0H424.5Q428.5,428.0 428.5,432.0V434.0Q428.5,438.0 424.5,438.0H190.0Z"><title>1.2k token 条款 · 优化后: 1.43 s</title></path><text class="val" x="434.5" y="437.0" text-anchor="start">1.43 s</text><text class="cat" x="178.0" y="467.0" text-anchor="end">448×672 截图</text><path class="s0" d="M190.0,452.0H598.7Q602.7,452.0 602.7,456.0V458.0Q602.7,462.0 598.7,462.0H190.0Z"><title>448×672 截图 · 优化前: 2.48 s</title></path><text class="val" x="608.7" y="461.0" text-anchor="start">2.48 s</text><path class="s1" d="M190.0,464.0H352.7Q356.7,464.0 356.7,468.0V470.0Q356.7,474.0 352.7,474.0H190.0Z"><title>448×672 截图 · 优化后: 1.00 s</title></path><text class="val" x="362.7" y="473.0" text-anchor="start">1.00 s</text></svg>
